# xmcd
#
# Track frame offsets:
#	150
#	1686
#	19513
#	35798
#	49463
#	70360
#	85520
#	103272
#	123445
#	142422
#	158096
#	179263
#	196322
#	216443
#	232918
#
# Disc length: 3342 seconds
#
# Revision: 1
# Processed by: cddbd v1.5.1PL2 Copyright (c) Steve Scherf et al.
# Submitted via: audiograbber 1.83.01
#
DISCID=d10d0c0f
DTITLE=Adriano do Vale - Adriano do Vale - 15 Anos de Rodeio
DYEAR=2006
DGENRE=Country
TTITLE0=Abertura Siderley Clein
TTITLE1=Galera Coração
TTITLE2=Que Pescar que Nada
TTITLE3=Club do Batidão
TTITLE4=Canarinho do Peito Amarelo
TTITLE5=Nois é Caipira
TTITLE6=Bebo pra Carai
TTITLE7=Fogo no Rabo
TTITLE8=Telefone Mudo
TTITLE9=Do Outro Lado da Cidade
TTITLE10=Desatino
TTITLE11=Galera Felicidade
TTITLE12=O Bicho vai Pegar
TTITLE13=Festa de Peão
TTITLE14=Rédeas do Possante
EXTD=
EXTT0=
EXTT1=
EXTT2=
EXTT3=
EXTT4=
EXTT5=
EXTT6=
EXTT7=
EXTT8=
EXTT9=
EXTT10=
EXTT11=
EXTT12=
EXTT13=
EXTT14=
PLAYORDER=
